<svg xmlns="http://www.w3.org/2000/svg" viewBox="0 0 880 380" role="img" aria-label="Dex architecture: user and machine actors authenticate via OIDC to the Dex server; Dex fans out to upstream connectors (OpenID, LDAP, Local, Mock, GitHub, GitLab, Bitbucket) and persists state in a pluggable storage backend (PostgreSQL, MySQL, SQLite, etcd, Kubernetes CRDs, in-memory).">
  <style>
    .stroke       { fill: none; stroke: var(--text-secondary, #475569); stroke-width: 1.5; stroke-linecap: round; stroke-linejoin: round; }
    .stroke-soft  { fill: none; stroke: var(--border-strong, #94A3B8); stroke-width: 1.2; stroke-linecap: round; stroke-dasharray: 5 4; }

    .actor-ring   { fill: var(--bg-card, #FFFFFF); stroke: var(--dex-blue, #449FD8); stroke-width: 2.5; }
    .actor-line   { fill: none; stroke: var(--dex-blue, #449FD8); stroke-width: 2; stroke-linecap: round; stroke-linejoin: round; }
    .actor-led    { fill: var(--dex-red, #F04D5C); }
    .actor-label  { fill: var(--text-primary, #0F172A); font-family: var(--font-sans, -apple-system, Helvetica, sans-serif); font-size: 11px; font-weight: 700; text-anchor: middle; letter-spacing: 0.04em; }

    .lane-oidc    { fill: var(--dex-blue, #449FD8); }
    .lane-conn    { fill: var(--border-strong, #94A3B8); }
    .lane-label   { fill: #FFFFFF; font-family: var(--font-sans, -apple-system, Helvetica, sans-serif); font-size: 15px; font-weight: 700; text-anchor: middle; dominant-baseline: central; letter-spacing: 0.08em; }

    .dex-frame    { fill: var(--bg-card, #FFFFFF); stroke: var(--dex-blue, #449FD8); stroke-width: 2; }
    .dex-word     { fill: var(--dex-blue, #449FD8); font-family: var(--font-sans, -apple-system, Helvetica, sans-serif); font-size: 48px; font-weight: 700; text-anchor: middle; letter-spacing: -0.02em; }

    .storage-band { fill: var(--blue-tint-2, rgba(68,159,216,0.08)); stroke: var(--dex-blue, #449FD8); stroke-width: 1.5; }
    .storage-lbl  { fill: var(--text-primary, #0F172A); font-family: var(--font-sans, -apple-system, Helvetica, sans-serif); font-size: 14px; font-weight: 700; text-anchor: start; }

    /* Chips use a fixed near-white fill in both themes so dark brand logos
       (GitHub, SQLite) always have contrast. Pure white would vanish on the
       white `.td-content` background in the light theme; #F8FAFC (slate-50)
       keeps the chip visible as a subtle "sticker" on both canvases. */
    .item-icon    { fill: #F8FAFC; stroke: var(--border-strong, #94A3B8); stroke-width: 1.2; }
    .item-icon--more { fill: transparent; stroke: var(--border-strong, #94A3B8); stroke-width: 1.2; stroke-dasharray: 3 3; }
    .item-label   { fill: var(--text-primary, #0F172A); font-family: var(--font-sans, -apple-system, Helvetica, sans-serif); font-size: 13px; font-weight: 600; text-anchor: start; dominant-baseline: central; }

    .storage-row-lbl       { fill: var(--text-primary, #0F172A); font-family: var(--font-sans, -apple-system, Helvetica, sans-serif); font-size: 12px; font-weight: 600; text-anchor: middle; }
  </style>

  <!-- ══════════════════ ACTORS (left column) — vector glyphs, not emoji,
       so they render consistently across OS/browser combinations that may
       lack a colour-emoji font. ══════════════════ -->

  <!-- Human user: stick figure inside the actor ring (head + body + limbs). -->
  <circle class="actor-ring" cx="65" cy="95" r="34"/>
  <g transform="translate(65, 74)">
    <circle class="actor-line" cx="0" cy="8" r="7"/>
    <line   class="actor-line" x1="0"   y1="15" x2="0"   y2="33"/>
    <line   class="actor-line" x1="-11" y1="24" x2="11"  y2="24"/>
    <line   class="actor-line" x1="0"   y1="33" x2="-10" y2="46"/>
    <line   class="actor-line" x1="0"   y1="33" x2="10"  y2="46"/>
  </g>
  <text class="actor-label" x="65" y="148">USER AUTHN</text>

  <!-- Machine/service: 3-blade rack server with power LEDs. -->
  <circle class="actor-ring" cx="65" cy="205" r="34"/>
  <g transform="translate(52, 183)">
    <rect class="actor-line" x="0"  y="0"  width="26" height="12" rx="1.5"/>
    <line class="actor-line" x1="4" y1="6" x2="14"    y2="6"/>
    <circle class="actor-led" cx="21" cy="6" r="1.6"/>
    <rect class="actor-line" x="0"  y="16" width="26" height="12" rx="1.5"/>
    <line class="actor-line" x1="4" y1="22" x2="14"   y2="22"/>
    <circle class="actor-led" cx="21" cy="22" r="1.6"/>
    <rect class="actor-line" x="0"  y="32" width="26" height="12" rx="1.5"/>
    <line class="actor-line" x1="4" y1="38" x2="14"   y2="38"/>
    <circle class="actor-led" cx="21" cy="38" r="1.6"/>
  </g>
  <text class="actor-label" x="65" y="258">MACHINE AUTHN</text>

  <path class="stroke-soft" d="M 99 95  Q 140 95  175 125"/>
  <path class="stroke-soft" d="M 99 205 Q 140 205 175 175"/>

  <!-- ══════════════════ OIDC LANE ══════════════════ -->
  <rect class="lane-oidc" x="175" y="40" width="36" height="220" rx="3"/>
  <g transform="translate(193 60)">
    <rect fill="#FFFFFF" x="-6" y="-2" width="12" height="10" rx="1.5"/>
    <path fill="none" stroke="#FFFFFF" stroke-width="1.4" d="M -4 -2 V -5 A 4 4 0 0 1 4 -5 V -2"/>
  </g>
  <text class="lane-label" x="193" y="160" transform="rotate(-90 193 160)">OIDC</text>

  <!-- ══════════════════ DEX CENTRE ══════════════════ -->
  <rect class="dex-frame" x="230" y="40" width="220" height="220" rx="6"/>

  <!-- Dex glyph — centered in the dex-box (box center x = 340, y ≈ 105).
       Glyph native 112×109 scaled 0.65 → 72.8 × 70.85; top-left at
       (340 - 36.4, 105 - 35.4) ≈ (303.6, 69.6). -->
  <g transform="translate(304, 70) scale(0.65)">
    <path fill="var(--dex-blue, #449FD8)" d="M88.345,51.574c7.588-3.55,12.764-10.49,14.175-18.53C96.396,19.395,84.663,9.054,70.094,4.851
      c4.923,7.133,7.272,15.583,6.771,24.17C83.311,34.466,87.716,42.55,88.345,51.574z M27.27,38.542
      c-8.207-1.045-16.333,1.973-21.858,8.054C3.23,61.683,7.869,76.84,18.099,88.158c-0.527-8.64,1.856-17.306,6.831-24.483
      C22.19,55.048,23.32,45.944,27.27,38.542z M33.01,76.928c-2.997,8.079-1.755,17.193,3.642,24.215
      c12.155,4.943,26.051,5.146,38.643-0.035c-7.818-2.516-14.886-7.518-19.887-14.731C47.233,86.23,39.124,83.032,33.01,76.928z
       M63.122,22.202C61.615,14.044,56.069,6.819,47.892,3.47C33.778,5.711,20.745,13.966,12.76,26.631
      c8.115-2.487,16.74-2.178,24.529,0.639C44.816,22.008,54.043,20.144,63.122,22.202z M85.891,66.457
      c-3.086,7.399-8.722,13.188-15.678,16.61c6.194,5.604,14.805,7.758,22.852,5.834c9.054-9.587,13.884-22.198,13.9-35.009
      C101.549,60.198,94.131,64.67,85.891,66.457z"/>
    <circle fill="var(--dex-red, #F04D5C)" cx="56.035" cy="53.892" r="15.972"/>
  </g>
  <!-- Blue "Dex" wordmark -->
  <text class="dex-word" x="340" y="190">Dex</text>

  <rect class="storage-band" x="230" y="210" width="220" height="50" rx="0"/>
  <!-- Storage icon + label centred in the band.
       DB cylinder is 20px wide, "Storage" at 14px bold ≈ 58px, 8px gap.
       Total ≈ 86px, so to centre in a 220-wide band we offset by (220-86)/2 ≈ 67
       from the left band edge (x=230), giving icon-x ≈ 297 and text-x ≈ 325. -->
  <g transform="translate(297, 222)">
    <ellipse fill="var(--dex-blue, #449FD8)" stroke="var(--dex-blue-700, #1F6FA3)" stroke-width="1" cx="10" cy="5" rx="9" ry="3.5"/>
    <path fill="var(--dex-blue, #449FD8)" stroke="var(--dex-blue-700, #1F6FA3)" stroke-width="1" d="M 1 5 L 1 20 A 9 3.5 0 0 0 19 20 L 19 5"/>
    <path fill="none" stroke="var(--dex-blue-700, #1F6FA3)" stroke-width="0.8" d="M 1 12 A 9 3.5 0 0 0 19 12"/>
  </g>
  <text class="storage-lbl" x="325" y="241">Storage</text>

  <!-- ══════════════════ CONNECTORS LANE ══════════════════ -->
  <rect class="lane-conn" x="468" y="40" width="36" height="220" rx="3"/>
  <text class="lane-label" x="486" y="150" transform="rotate(-90 486 150)">Connectors</text>

  <!-- ══════════════════ CONNECTOR GRID — 4 rows × 2 cols, tightened.
       Row spacing 42 (26 chip + 16 gap). Grid height = 4×26 + 3×16 = 152.
       Centred vertically in Connectors lane (y=40..260) → top y = 74.
       Col 1 at x=520, col 2 at x=630 → compact horizontal spacing. ══════════════════ -->
  <!-- OpenID — official mark -->
  <g transform="translate(520 74)">
    <rect class="item-icon" x="0" y="0" width="26" height="26" rx="4"/>
    <g transform="translate(4 4) scale(0.75)">
      <path fill="#F78C40" d="M14.54.889l-3.63 1.773v18.17c-4.15-.52-7.27-2.78-7.27-5.5 0-2.58 2.8-4.75 6.63-5.41v-2.31C4.42 8.322 0 11.502 0 15.332c0 3.96 4.74 7.24 10.91 7.78l3.63-1.71V.888m.64 6.724v2.31c1.43.25 2.71.7 3.76 1.31l-1.97 1.11 7.03 1.53-.5-5.21-1.87 1.06c-1.74-1.06-3.96-1.81-6.45-2.11z"/>
    </g>
  </g>
  <text class="item-label" x="554" y="87">OpenID</text>

  <!-- LDAP with SSL tag -->
  <g transform="translate(520 116)">
    <rect class="item-icon" x="0" y="0" width="26" height="26" rx="4"/>
    <path fill="none" stroke="#7A869A" stroke-width="1.5" d="M 6 8 L 20 8 M 6 13 L 20 13 M 6 18 L 20 18"/>
  </g>
  <text class="item-label" x="554" y="129">LDAP</text>

  <!-- Local -->
  <g transform="translate(520 158)">
    <rect class="item-icon" x="0" y="0" width="26" height="26" rx="4"/>
    <circle fill="#5B9BD5" cx="13" cy="11" r="3.5"/>
    <path fill="#5B9BD5" d="M 6 22 Q 6 16 13 16 Q 20 16 20 22 Z"/>
  </g>
  <text class="item-label" x="554" y="171">Local</text>

  <!-- Mock — code brackets: the universal dev/test iconography -->
  <g transform="translate(520 200)">
    <rect class="item-icon" x="0" y="0" width="26" height="26" rx="4"/>
    <g fill="none" stroke="#64748B" stroke-width="2" stroke-linecap="round" stroke-linejoin="round">
      <path d="M 10 9 L 6 13 L 10 17"/>
      <path d="M 16 9 L 20 13 L 16 17"/>
    </g>
  </g>
  <text class="item-label" x="554" y="213">Mock</text>

  <!-- "+ more connectors" chip — empty row-4 col-2 slot. Dashed border and
       transparent fill mark it as a placeholder ("there are more than these"),
       visually distinct from the concrete connector chips above. -->
  <g transform="translate(630 200)">
    <rect class="item-icon--more" x="0" y="0" width="26" height="26" rx="4"/>
    <g fill="#94A3B8">
      <circle cx="8"  cy="13" r="1.5"/>
      <circle cx="13" cy="13" r="1.5"/>
      <circle cx="18" cy="13" r="1.5"/>
    </g>
  </g>
  <text class="item-label" x="664" y="213">+ more</text>

  <!-- ══════════════════ BRAND CONNECTORS — moved closer (x=660) ══════════════════ -->
  <!-- GitHub — official Octocat mark (brand dark). -->
  <g transform="translate(630 74)">
    <rect class="item-icon" x="0" y="0" width="26" height="26" rx="4"/>
    <g transform="translate(4 4) scale(0.75)"><path fill="#24292F" d="M12 .297c-6.63 0-12 5.373-12 12 0 5.303 3.438 9.8 8.205 11.385.6.113.82-.258.82-.577 0-.285-.01-1.04-.015-2.04-3.338.724-4.042-1.61-4.042-1.61C4.422 18.07 3.633 17.7 3.633 17.7c-1.087-.744.084-.729.084-.729 1.205.084 1.838 1.236 1.838 1.236 1.07 1.835 2.809 1.305 3.495.998.108-.776.417-1.305.76-1.605-2.665-.3-5.466-1.332-5.466-5.93 0-1.31.465-2.38 1.235-3.22-.135-.303-.54-1.523.105-3.176 0 0 1.005-.322 3.3 1.23.96-.267 1.98-.399 3-.405 1.02.006 2.04.138 3 .405 2.28-1.552 3.285-1.23 3.285-1.23.645 1.653.24 2.873.12 3.176.765.84 1.23 1.91 1.23 3.22 0 4.61-2.805 5.625-5.475 5.92.42.36.81 1.096.81 2.22 0 1.606-.015 2.896-.015 3.286 0 .315.21.69.825.57C20.565 22.092 24 17.592 24 12.297c0-6.627-5.373-12-12-12"/></g>
  </g>
  <text class="item-label" x="664" y="87">GitHub</text>

  <!-- Gitlab — official tanuki mark -->
  <g transform="translate(630 116)">
    <rect class="item-icon" x="0" y="0" width="26" height="26" rx="4"/>
    <g transform="translate(4 4) scale(0.75)"><path fill="#FC6D26" d="m23.6004 9.5927-.0337-.0862L20.3.9814a.851.851 0 0 0-.3362-.405.8748.8748 0 0 0-.9997.0539.8748.8748 0 0 0-.29.4399l-2.2055 6.748H7.5375l-2.2057-6.748a.8573.8573 0 0 0-.29-.4412.8748.8748 0 0 0-.9997-.0537.8585.8585 0 0 0-.3362.4049L.4332 9.5015l-.0325.0862a6.0657 6.0657 0 0 0 2.0119 7.0105l.0113.0087.03.0213 4.976 3.7264 2.462 1.8633 1.4995 1.1321a1.0085 1.0085 0 0 0 1.2197 0l1.4995-1.1321 2.4619-1.8633 5.006-3.7489.0125-.01a6.0682 6.0682 0 0 0 2.0094-7.003z"/></g>
  </g>
  <text class="item-label" x="664" y="129">Gitlab</text>

  <!-- Bitbucket — official mark -->
  <g transform="translate(630 158)">
    <rect class="item-icon" x="0" y="0" width="26" height="26" rx="4"/>
    <g transform="translate(4 4) scale(0.75)"><path fill="#2684FF" d="M.778 1.213a.768.768 0 00-.768.892l3.263 19.81c.084.5.515.868 1.022.873H19.95a.772.772 0 00.77-.646l3.27-20.03a.768.768 0 00-.768-.891zM14.52 15.53H9.522L8.17 8.466h7.561z"/></g>
  </g>
  <text class="item-label" x="664" y="171">Bitbucket</text>

  <!-- ══════════════════ STORAGE ROW — tight under the Dex box so the
       link between the "Storage" label (inside Dex) and the concrete
       backends is immediate. 6 chips × 52 + 5 × 12 gaps = 372 wide;
       centred on the dex-box centre (x=340), row starts at x=154. ══════════════════ -->

  <!-- PostgreSQL — official Slonik mark (simple-icons, brand-coloured) -->
  <g transform="translate(134 278)">
    <rect class="item-icon" x="0" y="0" width="52" height="52" rx="6"/>
    <g transform="translate(8 8) scale(1.5)"><path fill="#336791" d="M23.5594 14.7228a.5269.5269 0 0 0-.0563-.1191c-.139-.2632-.4768-.3418-1.0074-.2321-1.6533.3411-2.2935.1312-2.5256-.0191 1.342-2.0482 2.445-4.522 3.0411-6.8297.2714-1.0507.7982-3.5237.1222-4.7316a1.5641 1.5641 0 0 0-.1509-.235C21.6931.9086 19.8007.0248 17.5099.0005c-1.4947-.0158-2.7705.3461-3.1161.4794a9.449 9.449 0 0 0-.5159-.0816 8.044 8.044 0 0 0-1.3114-.1278c-1.1822-.0184-2.2038.2642-3.0498.8406-.8573-.3211-4.7888-1.645-7.2219.0788C.9359 2.1526.3086 3.8733.4302 6.3043c.0409.818.5069 3.334 1.2423 5.7436.4598 1.5065.9387 2.7019 1.4334 3.582.553.9942 1.1259 1.5933 1.7143 1.7895.4474.1491 1.1327.1441 1.8581-.7279.8012-.9635 1.5903-1.8258 1.9446-2.2069.4351.2355.9064.3625 1.39.3772a.0569.0569 0 0 0 .0004.0041 11.0312 11.0312 0 0 0-.2472.3054c-.3389.4302-.4094.5197-1.5002.7443-.3102.064-1.1344.2339-1.1464.8115-.0025.1224.0329.2309.0919.3268.2269.4231.9216.6097 1.015.6331 1.3345.3335 2.5044.092 3.3714-.6787-.017 2.231.0775 4.4174.3454 5.0874.2212.5529.7618 1.9045 2.4692 1.9043.2505 0 .5263-.0291.8296-.0941 1.7819-.3821 2.5557-1.1696 2.855-2.9059.1503-.8707.4016-2.8753.5388-4.1012.0169-.0703.0357-.1207.057-.1362.0007-.0005.0697-.0471.4272.0307a.3673.3673 0 0 0 .0443.0068l.2539.0223.0149.001c.8468.0384 1.9114-.1426 2.5312-.4308.6438-.2988 1.8057-1.0323 1.5951-1.6698zM2.371 11.8765c-.7435-2.4358-1.1779-4.8851-1.2123-5.5719-.1086-2.1714.4171-3.6829 1.5623-4.4927 1.8367-1.2986 4.8398-.5408 6.108-.13-.0032.0032-.0066.0061-.0098.0094-2.0238 2.044-1.9758 5.536-1.9708 5.7495-.0002.0823.0066.1989.0162.3593.0348.5873.0996 1.6804-.0735 2.9184-.1609 1.1504.1937 2.2764.9728 3.0892.0806.0841.1648.1631.2518.2374-.3468.3714-1.1004 1.1926-1.9025 2.1576-.5677.6825-.9597.5517-1.0886.5087-.3919-.1307-.813-.5871-1.2381-1.3223-.4796-.839-.9635-2.0317-1.4155-3.5126zm6.0072 5.0871c-.1711-.0428-.3271-.1132-.4322-.1772.0889-.0394.2374-.0902.4833-.1409 1.2833-.2641 1.4815-.4506 1.9143-1.0002.0992-.126.2116-.2687.3673-.4426a.3549.3549 0 0 0 .0737-.1298c.1708-.1513.2724-.1099.4369-.0417.156.0646.3078.26.3695.4752.0291.1016.0619.2945-.0452.4444-.9043 1.2658-2.2216 1.2494-3.1676 1.0128zm2.094-3.988-.0525.141c-.133.3566-.2567.6881-.3334 1.003-.6674-.0021-1.3168-.2872-1.8105-.8024-.6279-.6551-.9131-1.5664-.7825-2.5004.1828-1.3079.1153-2.4468.079-3.0586-.005-.0857-.0095-.1607-.0122-.2199.2957-.2621 1.6659-.9962 2.6429-.7724.4459.1022.7176.4057.8305.928.5846 2.7038.0774 3.8307-.3302 4.7363-.084.1866-.1633.3629-.2311.5454zm7.3637 4.5725c-.0169.1768-.0358.376-.0618.5959l-.146.4383a.3547.3547 0 0 0-.0182.1077c-.0059.4747-.054.6489-.115.8693-.0634.2292-.1353.4891-.1794 1.0575-.11 1.4143-.8782 2.2267-2.4172 2.5565-1.5155.3251-1.7843-.4968-2.0212-1.2217a6.5824 6.5824 0 0 0-.0769-.2266c-.2154-.5858-.1911-1.4119-.1574-2.5551.0165-.5612-.0249-1.9013-.3302-2.6462.0044-.2932.0106-.5909.019-.8918a.3529.3529 0 0 0-.0153-.1126 1.4927 1.4927 0 0 0-.0439-.208c-.1226-.4283-.4213-.7866-.7797-.9351-.1424-.059-.4038-.1672-.7178-.0869.067-.276.1831-.5875.309-.9249l.0529-.142c.0595-.16.134-.3257.213-.5012.4265-.9476 1.0106-2.2453.3766-5.1772-.2374-1.0981-1.0304-1.6343-2.2324-1.5098-.7207.0746-1.3799.3654-1.7088.5321a5.6716 5.6716 0 0 0-.1958.1041c.0918-1.1064.4386-3.1741 1.7357-4.4823a4.0306 4.0306 0 0 1 .3033-.276.3532.3532 0 0 0 .1447-.0644c.7524-.5706 1.6945-.8506 2.802-.8325.4091.0067.8017.0339 1.1742.081 1.939.3544 3.2439 1.4468 4.0359 2.3827.8143.9623 1.2552 1.9315 1.4312 2.4543-1.3232-.1346-2.2234.1268-2.6797.779-.9926 1.4189.543 4.1729 1.2811 5.4964.1353.2426.2522.4522.2889.5413.2403.5825.5515.9713.7787 1.2552.0696.087.1372.1714.1885.245-.4008.1155-1.1208.3825-1.0552 1.717-.0123.1563-.0423.4469-.0834.8148-.0461.2077-.0702.4603-.0994.7662zm.8905-1.6211c-.0405-.8316.2691-.9185.5967-1.0105a2.8566 2.8566 0 0 0 .135-.0406 1.202 1.202 0 0 0 .1342.103c.5703.3765 1.5823.4213 3.0068.1344-.2016.1769-.5189.3994-.9533.6011-.4098.1903-1.0957.333-1.7473.3636-.7197.0336-1.0859-.0807-1.1721-.151zm.5695-9.2712c-.0059.3508-.0542.6692-.1054 1.0017-.055.3576-.112.7274-.1264 1.1762-.0142.4368.0404.8909.0932 1.3301.1066.887.216 1.8003-.2075 2.7014a3.5272 3.5272 0 0 1-.1876-.3856c-.0527-.1276-.1669-.3326-.3251-.6162-.6156-1.1041-2.0574-3.6896-1.3193-4.7446.3795-.5427 1.3408-.5661 2.1781-.463zm.2284 7.0137a12.3762 12.3762 0 0 0-.0853-.1074l-.0355-.0444c.7262-1.1995.5842-2.3862.4578-3.4385-.0519-.4318-.1009-.8396-.0885-1.2226.0129-.4061.0666-.7543.1185-1.0911.0639-.415.1288-.8443.1109-1.3505.0134-.0531.0188-.1158.0118-.1902-.0457-.4855-.5999-1.938-1.7294-3.253-.6076-.7073-1.4896-1.4972-2.6889-2.0395.5251-.1066 1.2328-.2035 2.0244-.1859 2.0515.0456 3.6746.8135 4.8242 2.2824a.908.908 0 0 1 .0667.1002c.7231 1.3556-.2762 6.2751-2.9867 10.5405zm-8.8166-6.1162c-.025.1794-.3089.4225-.6211.4225a.5821.5821 0 0 1-.0809-.0056c-.1873-.026-.3765-.144-.5059-.3156-.0458-.0605-.1203-.178-.1055-.2844.0055-.0401.0261-.0985.0925-.1488.1182-.0894.3518-.1226.6096-.0867.3163.0441.6426.1938.6113.4186zm7.9305-.4114c.0111.0792-.049.201-.1531.3102-.0683.0717-.212.1961-.4079.2232a.5456.5456 0 0 1-.075.0052c-.2935 0-.5414-.2344-.5607-.3717-.024-.1765.2641-.3106.5611-.352.297-.0414.6111.0088.6356.1851z"/></g>
  </g>
  <text class="storage-row-lbl" x="160" y="348">PostgreSQL</text>

  <!-- MySQL — official dolphin mark -->
  <g transform="translate(206 278)">
    <rect class="item-icon" x="0" y="0" width="52" height="52" rx="6"/>
    <g transform="translate(8 8) scale(1.5)"><path fill="#00758F" d="M16.405 5.501c-.115 0-.193.014-.274.033v.013h.014c.054.104.146.18.214.273.054.107.1.214.154.32l.014-.015c.094-.066.14-.172.14-.333-.04-.047-.046-.094-.08-.14-.04-.067-.126-.1-.18-.153zM5.77 18.695h-.927a50.854 50.854 0 00-.27-4.41h-.008l-1.41 4.41H2.45l-1.4-4.41h-.01a72.892 72.892 0 00-.195 4.41H0c.055-1.966.192-3.81.41-5.53h1.15l1.335 4.064h.008l1.347-4.064h1.095c.242 2.015.384 3.86.428 5.53zm4.017-4.08c-.378 2.045-.876 3.533-1.492 4.46-.482.716-1.01 1.073-1.583 1.073-.153 0-.34-.046-.566-.138v-.494c.11.017.24.026.386.026.268 0 .483-.075.647-.222.197-.18.295-.382.295-.605 0-.155-.077-.47-.23-.944L6.23 14.615h.91l.727 2.36c.164.536.233.91.205 1.123.4-1.064.678-2.227.835-3.483zm12.325 4.08h-2.63v-5.53h.885v4.85h1.745zm-3.32.135l-1.016-.5c.09-.076.177-.158.255-.25.433-.506.648-1.258.648-2.253 0-1.83-.718-2.746-2.155-2.746-.704 0-1.254.232-1.65.697-.43.508-.646 1.256-.646 2.245 0 .972.19 1.686.574 2.14.35.41.877.615 1.583.615.264 0 .506-.033.725-.098l1.325.772.36-.622zM15.5 17.588c-.225-.36-.337-.94-.337-1.736 0-1.393.424-2.09 1.27-2.09.443 0 .77.167.977.5.224.362.336.936.336 1.723 0 1.404-.424 2.108-1.27 2.108-.445 0-.77-.167-.978-.5zm-1.658-.425c0 .47-.172.856-.516 1.156-.344.3-.803.45-1.384.45-.543 0-1.064-.172-1.573-.515l.237-.476c.438.22.833.328 1.19.328.332 0 .593-.073.783-.22a.754.754 0 00.3-.615c0-.33-.23-.61-.648-.845-.388-.213-1.163-.657-1.163-.657-.422-.307-.632-.636-.632-1.177 0-.45.157-.81.47-1.085.315-.278.72-.415 1.22-.415.512 0 .98.136 1.4.41l-.213.476a2.726 2.726 0 00-1.064-.23c-.283 0-.502.068-.654.206a.685.685 0 00-.248.524c0 .328.234.61.666.85.393.215 1.187.67 1.187.67.433.305.648.63.648 1.168zm9.382-5.852c-.535-.014-.95.04-1.297.188-.1.04-.26.04-.274.167.055.053.063.14.11.214.08.134.218.313.346.407.14.11.28.216.427.31.26.16.555.255.81.416.145.094.293.213.44.313.073.05.12.14.214.172v-.02c-.046-.06-.06-.147-.105-.214-.067-.067-.134-.127-.2-.193a3.223 3.223 0 00-.695-.675c-.214-.146-.682-.35-.77-.595l-.013-.014c.146-.013.32-.066.46-.106.227-.06.435-.047.67-.106.106-.027.213-.06.32-.094v-.06c-.12-.12-.21-.283-.334-.395a8.867 8.867 0 00-1.104-.823c-.21-.134-.476-.22-.697-.334-.08-.04-.214-.06-.26-.127-.12-.146-.19-.34-.275-.514a17.69 17.69 0 01-.547-1.163c-.12-.262-.193-.523-.34-.763-.69-1.137-1.437-1.826-2.586-2.5-.247-.14-.543-.2-.856-.274-.167-.008-.334-.02-.5-.027-.11-.047-.216-.174-.31-.235-.38-.24-1.364-.76-1.644-.072-.18.434.267.862.422 1.082.115.153.26.328.34.5.047.116.06.235.107.356.106.294.207.622.347.897.073.14.153.287.247.413.054.073.146.107.167.227-.094.136-.1.334-.154.5-.24.757-.146 1.693.194 2.25.107.166.362.534.703.393.3-.12.234-.5.32-.835.02-.08.007-.133.048-.187v.015c.094.188.188.367.274.555.206.328.566.668.867.895.16.12.287.328.487.402v-.02h-.015c-.043-.058-.1-.086-.154-.133a3.445 3.445 0 01-.35-.4 8.76 8.76 0 01-.747-1.218c-.11-.21-.202-.436-.29-.643-.04-.08-.04-.2-.107-.24-.1.146-.247.273-.32.453-.127.288-.14.642-.188 1.01-.027.007-.014 0-.027.014-.214-.052-.287-.274-.367-.46-.2-.475-.233-1.238-.06-1.785.047-.14.247-.582.167-.716-.042-.127-.174-.2-.247-.303a2.478 2.478 0 01-.24-.427c-.16-.374-.24-.788-.414-1.162-.08-.173-.22-.354-.334-.513-.127-.18-.267-.307-.368-.52-.033-.073-.08-.194-.027-.274.014-.054.042-.075.094-.09.088-.072.335.022.422.062.247.1.455.194.662.334.094.066.195.193.315.226h.14c.214.047.455.014.655.073.355.114.675.28.962.46a5.953 5.953 0 012.085 2.286c.08.154.115.295.188.455.14.33.313.663.455.982.14.315.275.636.476.897.1.14.502.213.682.286.133.06.34.115.46.188.23.14.454.3.67.454.11.076.443.243.463.378z"/></g>
  </g>
  <text class="storage-row-lbl" x="232" y="348">MySQL</text>

  <!-- SQLite — official feather-style mark -->
  <g transform="translate(278 278)">
    <rect class="item-icon" x="0" y="0" width="52" height="52" rx="6"/>
    <g transform="translate(8 8) scale(1.5)"><path fill="#003B57" d="M21.678.521c-1.032-.92-2.28-.55-3.513.544a8.71 8.71 0 0 0-.547.535c-2.109 2.237-4.066 6.38-4.674 9.544.237.48.422 1.093.544 1.561a13.044 13.044 0 0 1 .164.703s-.019-.071-.096-.296l-.05-.146a1.689 1.689 0 0 0-.033-.08c-.138-.32-.518-.995-.686-1.289-.143.423-.27.818-.376 1.176.484.884.778 2.4.778 2.4s-.025-.099-.147-.442c-.107-.303-.644-1.244-.772-1.464-.217.804-.304 1.346-.226 1.478.152.256.296.698.422 1.186.286 1.1.485 2.44.485 2.44l.017.224a22.41 22.41 0 0 0 .056 2.748c.095 1.146.273 2.13.5 2.657l.155-.084c-.334-1.038-.47-2.399-.41-3.967.09-2.398.642-5.29 1.661-8.304 1.723-4.55 4.113-8.201 6.3-9.945-1.993 1.8-4.692 7.63-5.5 9.788-.904 2.416-1.545 4.684-1.931 6.857.666-2.037 2.821-2.912 2.821-2.912s1.057-1.304 2.292-3.166c-.74.169-1.955.458-2.362.629-.6.251-.762.337-.762.337s1.945-1.184 3.613-1.72C21.695 7.9 24.195 2.767 21.678.521m-18.573.543A1.842 1.842 0 0 0 1.27 2.9v16.608a1.84 1.84 0 0 0 1.835 1.834h9.418a22.953 22.953 0 0 1-.052-2.707c-.006-.062-.011-.141-.016-.2a27.01 27.01 0 0 0-.473-2.378c-.121-.47-.275-.898-.369-1.057-.116-.197-.098-.31-.097-.432 0-.12.015-.245.037-.386a9.98 9.98 0 0 1 .234-1.045l.217-.028c-.017-.035-.014-.065-.031-.097l-.041-.381a32.8 32.8 0 0 1 .382-1.194l.2-.019c-.008-.016-.01-.038-.018-.053l-.043-.316c.63-3.28 2.587-7.443 4.8-9.791.066-.069.133-.128.198-.194Z"/></g>
  </g>
  <text class="storage-row-lbl" x="304" y="348">SQLite</text>

  <!-- etcd — official mark -->
  <g transform="translate(350 278)">
    <rect class="item-icon" x="0" y="0" width="52" height="52" rx="6"/>
    <g transform="translate(8 8) scale(1.5)"><path fill="#419EDA" d="M10.985 10.715A1.565 1.565 0 1 1 9.42 9.151a1.566 1.566 0 0 1 1.565 1.564zm2.023 0a1.565 1.565 0 1 0 1.565-1.564 1.564 1.564 0 0 0-1.565 1.564zm10.653 1.698a4.295 4.295 0 0 1-.346.013 4.517 4.517 0 0 1-1.986-.462 18.448 18.448 0 0 0 .267-3.515 18.184 18.184 0 0 0-2.274-2.695 4.519 4.519 0 0 1 1.603-1.717l.294-.182-.23-.26a11.977 11.977 0 0 0-4.182-3.05l-.319-.138-.08.336a4.506 4.506 0 0 1-1.135 2.058 18.19 18.19 0 0 0-3.277-1.35 18.126 18.126 0 0 0-3.272 1.348A4.495 4.495 0 0 1 7.594.745L7.512.408l-.317.139a12.091 12.091 0 0 0-4.182 3.05l-.23.259.294.182a4.512 4.512 0 0 1 1.599 1.708 18.322 18.322 0 0 0-2.27 2.685 18.435 18.435 0 0 0 .26 3.538 4.505 4.505 0 0 1-1.975.458 4.224 4.224 0 0 1-.346-.013L0 12.386l.032.344a11.904 11.904 0 0 0 1.609 4.924l.175.298.263-.223a4.502 4.502 0 0 1 2.132-.998 18.29 18.29 0 0 0 1.824 2.971 18.473 18.473 0 0 0 3.457.85 4.493 4.493 0 0 1-.287 2.36l-.132.319.338.075a12.048 12.048 0 0 0 2.59.286l2.59-.286.338-.075-.131-.32a4.487 4.487 0 0 1-.287-2.361 18.476 18.476 0 0 0 3.443-.848 18.208 18.208 0 0 0 1.826-2.974 4.51 4.51 0 0 1 2.143.999l.263.223.175-.296a11.877 11.877 0 0 0 1.607-4.924l.032-.343zm-7.958 4.209a13.981 13.981 0 0 1-7.416 0 14.189 14.189 0 0 1-2.256-7.013 14.118 14.118 0 0 1 2.687-2.558 14.333 14.333 0 0 1 3.279-1.784 14.377 14.377 0 0 1 3.27 1.779 14.226 14.226 0 0 1 2.7 2.576 14.293 14.293 0 0 1-.675 3.652 14.365 14.365 0 0 1-1.59 3.348z"/></g>
  </g>
  <text class="storage-row-lbl" x="376" y="348">etcd</text>

  <!-- Kubernetes — official helm wheel -->
  <g transform="translate(422 278)">
    <rect class="item-icon" x="0" y="0" width="52" height="52" rx="6"/>
    <g transform="translate(8 8) scale(1.5)"><path fill="#326CE5" d="M10.204 14.35l.007.01-.999 2.413a5.171 5.171 0 0 1-2.075-2.597l2.578-.437.004.005a.44.44 0 0 1 .484.606zm-.833-2.129a.44.44 0 0 0 .173-.756l.002-.011L7.585 9.7a5.143 5.143 0 0 0-.73 3.255l2.514-.725.002-.009zm1.145-1.98a.44.44 0 0 0 .699-.337l.01-.005.15-2.62a5.144 5.144 0 0 0-3.01 1.442l2.147 1.523.004-.002zm.76 2.75l.723.349.722-.347.18-.78-.5-.623h-.804l-.5.623.179.779zm1.5-3.095a.44.44 0 0 0 .7.336l.008.003 2.134-1.513a5.188 5.188 0 0 0-2.992-1.442l.148 2.615.002.001zm10.876 5.97l-5.773 7.181a1.6 1.6 0 0 1-1.248.594l-9.261.003a1.6 1.6 0 0 1-1.247-.596l-5.776-7.18a1.583 1.583 0 0 1-.307-1.34L2.1 5.573c.108-.47.425-.864.863-1.073L11.305.513a1.606 1.606 0 0 1 1.385 0l8.345 3.985c.438.209.755.604.863 1.073l2.062 8.955c.108.47-.005.963-.308 1.34zm-3.289-2.057c-.042-.01-.103-.026-.145-.034-.174-.033-.315-.025-.479-.038-.35-.037-.638-.067-.895-.148-.105-.04-.18-.165-.216-.216l-.201-.059a6.45 6.45 0 0 0-.105-2.332 6.465 6.465 0 0 0-.936-2.163c.052-.047.15-.133.177-.159.008-.09.001-.183.094-.282.197-.185.444-.338.743-.522.142-.084.273-.137.415-.242.032-.024.076-.062.11-.089.24-.191.295-.52.123-.736-.172-.216-.506-.236-.745-.045-.034.027-.08.062-.111.088-.134.116-.217.23-.33.35-.246.25-.45.458-.673.609-.097.056-.239.037-.303.033l-.19.135a6.545 6.545 0 0 0-4.146-2.003l-.012-.223c-.065-.062-.143-.115-.163-.25-.022-.268.015-.557.057-.905.023-.163.061-.298.068-.475.001-.04-.001-.099-.001-.142 0-.306-.224-.555-.5-.555-.275 0-.499.249-.499.555l.001.014c0 .041-.002.092 0 .128.006.177.044.312.067.475.042.348.078.637.056.906a.545.545 0 0 1-.162.258l-.012.211a6.424 6.424 0 0 0-4.166 2.003 8.373 8.373 0 0 1-.18-.128c-.09.012-.18.04-.297-.029-.223-.15-.427-.358-.673-.608-.113-.12-.195-.234-.329-.349-.03-.026-.077-.062-.111-.088a.594.594 0 0 0-.348-.132.481.481 0 0 0-.398.176c-.172.216-.117.546.123.737l.007.005.104.083c.142.105.272.159.414.242.299.185.546.338.743.522.076.082.09.226.1.288l.16.143a6.462 6.462 0 0 0-1.02 4.506l-.208.06c-.055.072-.133.184-.215.217-.257.081-.546.11-.895.147-.164.014-.305.006-.48.039-.037.007-.09.02-.133.03l-.004.002-.007.002c-.295.071-.484.342-.423.608.061.267.349.429.645.365l.007-.001.01-.003.129-.029c.17-.046.294-.113.448-.172.33-.118.604-.217.87-.256.112-.009.23.069.288.101l.217-.037a6.5 6.5 0 0 0 2.88 3.596l-.09.218c.033.084.069.199.044.282-.097.252-.263.517-.452.813-.091.136-.185.242-.268.399-.02.037-.045.095-.064.134-.128.275-.034.591.213.71.248.12.556-.007.69-.282v-.002c.02-.039.046-.09.062-.127.07-.162.094-.301.144-.458.132-.332.205-.68.387-.897.05-.06.13-.082.215-.105l.113-.205a6.453 6.453 0 0 0 4.609.012l.106.192c.086.028.18.042.256.155.136.232.229.507.342.84.05.156.074.295.145.457.016.037.043.09.062.129.133.276.442.402.69.282.247-.118.341-.435.213-.71-.02-.039-.045-.096-.065-.134-.083-.156-.177-.261-.268-.398-.19-.296-.346-.541-.443-.793-.04-.13.007-.21.038-.294-.018-.022-.059-.144-.083-.202a6.499 6.499 0 0 0 2.88-3.622c.064.01.176.03.213.038.075-.05.144-.114.28-.104.266.039.54.138.87.256.154.06.277.128.448.173.036.01.088.019.13.028l.009.003.007.001c.297.064.584-.098.645-.365.06-.266-.128-.537-.423-.608zM16.4 9.701l-1.95 1.746v.005a.44.44 0 0 0 .173.757l.003.01 2.526.728a5.199 5.199 0 0 0-.108-1.674A5.208 5.208 0 0 0 16.4 9.7zm-4.013 5.325a.437.437 0 0 0-.404-.232.44.44 0 0 0-.372.233h-.002l-1.268 2.292a5.164 5.164 0 0 0 3.326.003l-1.27-2.296h-.01zm1.888-1.293a.44.44 0 0 0-.27.036.44.44 0 0 0-.214.572l-.003.004 1.01 2.438a5.15 5.15 0 0 0 2.081-2.615l-2.6-.44-.004.005z"/></g>
  </g>
  <text class="storage-row-lbl" x="448" y="348">Kubernetes</text>

  <!-- in-memory -->
  <g transform="translate(494 278)">
    <rect class="item-icon" x="0" y="0" width="52" height="52" rx="6"/>
    <g transform="translate(4 14)">
      <rect fill="#64748B" x="0" y="6" width="44" height="16" rx="1.5"/>
      <rect fill="#94A3B8" x="3" y="9" width="10" height="10" rx="0.8"/>
      <rect fill="#94A3B8" x="17" y="9" width="10" height="10" rx="0.8"/>
      <rect fill="#94A3B8" x="31" y="9" width="10" height="10" rx="0.8"/>
      <g fill="#64748B">
        <rect x="1"  y="22" width="2" height="3"/>
        <rect x="5"  y="22" width="2" height="3"/>
        <rect x="9"  y="22" width="2" height="3"/>
        <rect x="13" y="22" width="2" height="3"/>
        <rect x="17" y="22" width="2" height="3"/>
        <rect x="21" y="22" width="2" height="3"/>
        <rect x="25" y="22" width="2" height="3"/>
        <rect x="29" y="22" width="2" height="3"/>
        <rect x="33" y="22" width="2" height="3"/>
        <rect x="37" y="22" width="2" height="3"/>
        <rect x="41" y="22" width="2" height="3"/>
      </g>
    </g>
  </g>
  <text class="storage-row-lbl" x="520" y="348">in-memory</text>
</svg>
